<svg xmlns="http://www.w3.org/2000/svg" id="Layer_1" aria-labelledby="title" class="svg skip-lazy inlined-svg" data-name="Layer 1" viewBox="0 0 85 46"><defs><style>.cls-2{fill:#fff}</style></defs><rect width="76.029" height="33.829" x="4.392" y=".856" rx="10.379" ry="10.379" style="fill:#ed1c24"/><path d="M70.042 35.155H14.77A10.867 10.867 0 0 1 3.922 24.3V11.235A10.867 10.867 0 0 1 14.77.349h55.272A10.867 10.867 0 0 1 80.89 11.235V24.3a10.867 10.867 0 0 1-10.848 10.855zM14.77 1.288a9.919 9.919 0 0 0-9.91 9.928V24.3a9.919 9.919 0 0 0 9.909 9.919h55.273a9.919 9.919 0 0 0 9.909-9.919V11.235a9.919 9.919 0 0 0-9.891-9.947H14.77z" class="cls-2"/><rect width="66.551" height="24.483" x="9.131" y="5.529" class="cls-2" rx="7.122" ry="7.122"/><path d="m27.617 7.791 2.13 7.676 2.064 7.507.15.075h2.984l.1-.178V12.07a14.076 14.076 0 0 0-1.783-.056 49.395 49.395 0 0 1 0-4.251h13.095c1.924.244 3.979.732 5.077 2.637a5.856 5.856 0 0 1 .15 5.827 5.687 5.687 0 0 1-2.184 2.008 2.468 2.468 0 0 1 1.811 2.008c.131.938-.188 2.036.807 2.562a4.213 4.213 0 0 0 1.811.272h2.027c.131-.094.507.113.554-.169V12.23l-.178-.1H54.7l-.056-.16V7.875h5.02l6.569.075a6.184 6.184 0 0 1 5.574 3.941 4.317 4.317 0 0 1-1.333 4.692 6.954 6.954 0 0 1-1.577.938 5.255 5.255 0 0 1 3.7 2.581 5.077 5.077 0 0 1-.206 4.8 5.978 5.978 0 0 1-4.991 2.661H48.083a3.237 3.237 0 0 1-2.4-.8c-1.539-1.623-.122-4.532-1.2-6.334-.657-.845-1.67-.516-2.637-.554a29.147 29.147 0 0 0 0 3.162c.526.066 1.182 0 1.708.056l.056.16v4.288l-.141.019H22.9l-.056-.075v-4.3l.056-.085 1.455-.056.056-.056a15.014 15.014 0 0 0-.432-1.877c-1.342-.056-2.815 0-4.044 0a1.408 1.408 0 0 0-.169 1.295 1.614 1.614 0 0 0 1.614.7v4.457h-8.186v-4.439h.075a2.064 2.064 0 0 0 1.783-.676 5.471 5.471 0 0 0 .938-2.064l2.4-7.836c-.056-.15.253-.45-.075-.479h-2.221l-.084-.216.056-4.044h9.994z"/><path d="M44.959 13.083a2.74 2.74 0 0 1-.375 2.487c-.807.8-1.877.441-2.815.526l-.075-.075v-3.895c1.134.104 2.777-.516 3.265.957zm20.419-.45a1.877 1.877 0 0 1 .432 1.379 1.82 1.82 0 0 1-.572 1.126 3.5 3.5 0 0 1-2.262.357v-3.247c.779-.018 1.83-.234 2.402.385zm-42.406 4.608a19.932 19.932 0 0 1-2.083 0v-.328L22 13.065c.381 1.407.7 2.759.972 4.176zm42.903 2.993A2.111 2.111 0 0 1 66 22.111a1.558 1.558 0 0 1-1.295.938 12.34 12.34 0 0 1-1.755 0c-.019-1.117-.019-2.318-.019-3.481a.554.554 0 0 1 .253-.084c.937.065 2.175-.254 2.691.75z" class="cls-2"/><path d="M5.386 39.133H2.628L0 42.643v1.68l3.256-.066-.084 1.286h2.214l-.056-1.286.863.066v-1.8l-.807.056zm-2.13 2.506v.938l-1.126.066.826-.995a2.561 2.561 0 0 0 .357-.535h.047a1.615 1.615 0 0 0-.104.526zm10.032-2.515h-2.665l-.441.938a2.337 2.337 0 0 0-.206.526h-.048a2.468 2.468 0 0 0-.2-.526l-.479-.938H6.625l2.055 3-2.243 3.419h2.656l.713-1.314a2.191 2.191 0 0 0 .178-.441h.056a1.345 1.345 0 0 0 .141.394l.732 1.361h2.693l-2.29-3.416zm5.912.009h-2.759l-2.628 3.51-.038-.009v1.689l3.256-.066-.084 1.286H19.2l-.056-1.286.863.066v-1.8l-.807.056zm-2.13 2.506v.938l-1.126.066.826-.995a2.563 2.563 0 0 0 .357-.535h.047a1.613 1.613 0 0 0-.105.526zm8.755-2.515-2.233 6.419h2.468l.188-.8h1.745l.216.8h2.477L28.4 39.124zm.835 4.091.422-1.961h.094c.038.272.084.554.15.826l.272 1.135zm7.432-4.185A3.331 3.331 0 0 0 30.8 42.4v.066a3.219 3.219 0 0 0 3.256 3.181 5.161 5.161 0 0 0 1.661-.253v-2.4a1.877 1.877 0 0 1-1.333.591 1.276 1.276 0 0 1-1.3-1.248 1.257 1.257 0 0 1 1.267-1.248 2.083 2.083 0 0 1 1.37.648v-2.44a4.871 4.871 0 0 0-1.567-.263zm5.708 2.055a2.083 2.083 0 0 1 1.37.648l-.07-2.449a4.881 4.881 0 0 0-1.567-.263h-.057a3.331 3.331 0 0 0-3.294 3.369v.076a3.219 3.219 0 0 0 3.256 3.181 5.161 5.161 0 0 0 1.661-.253l.066-2.4a1.877 1.877 0 0 1-1.333.591 1.276 1.276 0 0 1-1.3-1.248 1.257 1.257 0 0 1 1.268-1.252zm4.361 2.074h1.792v-1.67h-1.792v-.61h1.942v-1.755h-4.316v6.419h4.41v-1.755h-2.036v-.629zm6.015-1.68-.526-.122c-.178-.047-.469-.084-.469-.319a.432.432 0 0 1 .5-.338 2.421 2.421 0 0 1 1.389.507l.629-1.642A3.819 3.819 0 0 0 49.66 39q-.061-.007-.123-.01a2.543 2.543 0 0 0-2.692 2.385 1.764 1.764 0 0 0 1.68 1.7l.469.084c.206.038.516.066.516.357a.526.526 0 0 1-.591.413 2.449 2.449 0 0 1-1.455-.591l-.122-.094-.751 1.811a5.779 5.779 0 0 0 2.468.591c1.417 0 2.815-.76 2.815-2.29a1.877 1.877 0 0 0-1.698-1.877zm5.471 0-.526-.122c-.178-.047-.469-.084-.469-.319a.432.432 0 0 1 .5-.338 2.421 2.421 0 0 1 1.389.507l.629-1.642A3.819 3.819 0 0 0 55.131 39q-.061-.007-.123-.01a2.543 2.543 0 0 0-2.692 2.385 1.764 1.764 0 0 0 1.68 1.7l.469.084c.206.038.516.066.516.357a.525.525 0 0 1-.591.413 2.449 2.449 0 0 1-1.455-.591l-.122-.094-.751 1.811a5.779 5.779 0 0 0 2.468.591c1.417 0 2.815-.76 2.815-2.29a1.877 1.877 0 0 0-1.698-1.877zm5.87-2.416a3.557 3.557 0 0 0-3.805 3.289 3.556 3.556 0 0 0 7.094 0 3.556 3.556 0 0 0-3.289-3.289zm.943 3.292a1.2 1.2 0 1 1-2.4 0l-.038.038a1.22 1.22 0 0 1 2.44-.038zm7.207.72v-.047a1.511 1.511 0 0 0 1.239-1.67c0-1.623-1.229-2.233-2.674-2.233h-2.816v6.447h2.327v-2.056l1.023 2.027h2.693l-1.4-2.083a1.633 1.633 0 0 0-.392-.385zm-1.811-1.135H67.7v-1.089h.178c.4 0 .751.075.751.554s-.389.534-.774.534zm3.847-2.816h2.327v6.419h-2.327zm5.555 4.035h1.793v-1.67h-1.793v-.61h1.971v-1.755h-4.317v6.419h4.383v-1.755h-2.037v-.629zm6.042-1.68-.526-.122a.45.45 0 0 1-.469-.319.432.432 0 0 1 .5-.338 2.421 2.421 0 0 1 1.389.507l.629-1.642A3.819 3.819 0 0 0 82.785 39q-.061-.007-.123-.01a2.543 2.543 0 0 0-2.692 2.385 1.764 1.764 0 0 0 1.68 1.7l.469.084c.206.038.516.066.516.357a.526.526 0 0 1-.591.413 2.449 2.449 0 0 1-1.454-.591l-.122-.094-.751 1.811a5.78 5.78 0 0 0 2.468.591c1.417 0 2.815-.76 2.815-2.29a1.877 1.877 0 0 0-1.7-1.877z" style="fill:none"/></svg>